<svg width="30" height="30" viewBox="0 0 30 30" fill="none" xmlns="http://www.w3.org/2000/svg">
<path d="M15.0033 0C13.8178 0 12.86 0.837891 12.86 1.875V2.0625C7.97053 2.92969 4.28667 6.71484 4.28667 11.25V12.5215C4.28667 15.3398 3.18821 18.0762 1.17883 20.2793L0.522438 20.9941C0.180844 21.3633 0 21.8203 0 22.2949C0 23.4434 1.06497 24.375 2.37776 24.375H27.6222C28.935 24.375 30 23.4434 30 22.2949C30 21.8203 29.8192 21.3633 29.4776 20.9941L28.8212 20.2793C26.8185 18.0762 25.72 15.3398 25.72 12.5215V11.25C25.72 6.71484 22.0362 2.92969 17.1467 2.0625V1.875C17.1467 0.837891 16.1889 0 15.0033 0ZM10.8506 27.1875C11.3262 28.8047 13.0074 30 15.0033 30C16.9993 30 18.6805 28.8047 19.1561 27.1875H10.8506Z" fill="white"/>
</svg>
