<svg width="30" height="30" viewBox="0 0 30 30" fill="none" xmlns="http://www.w3.org/2000/svg">
<path fill-rule="evenodd" clip-rule="evenodd" d="M12.6001 23.241H4.72388C4.20638 23.241 3.78638 22.821 3.78638 22.3035C3.78638 21.786 4.20638 21.366 4.72388 21.366H12.6001C13.1176 21.366 13.5376 21.786 13.5376 22.3035C13.5376 22.821 13.1176 23.241 12.6001 23.241Z" fill="currentColor"/>
<path fill-rule="evenodd" clip-rule="evenodd" d="M23.9886 11.1255H16.1136C15.5961 11.1255 15.1761 10.7055 15.1761 10.188C15.1761 9.6705 15.5961 9.2505 16.1136 9.2505H23.9886C24.5061 9.2505 24.9261 9.6705 24.9261 10.188C24.9261 10.7055 24.5061 11.1255 23.9886 11.1255Z" fill="currentColor"/>
<mask id="mask0_4_126" style="mask-type:luminance" maskUnits="userSpaceOnUse" x="3" y="6" width="9" height="8">
<path fill-rule="evenodd" clip-rule="evenodd" d="M3.75 6.2505H11.5322V13.99H3.75V6.2505Z" fill="currentColor"/>
</mask>
<g mask="url(#mask0_4_126)">
<path fill-rule="evenodd" clip-rule="evenodd" d="M7.64101 8.125C6.52976 8.125 5.62476 9.02 5.62476 10.1212C5.62476 11.2213 6.52976 12.115 7.64101 12.115C8.75351 12.115 9.65726 11.2213 9.65726 10.1212C9.65726 9.02 8.75351 8.125 7.64101 8.125ZM7.64101 13.99C5.49601 13.99 3.74976 12.255 3.74976 10.1212C3.74976 7.9875 5.49601 6.25 7.64101 6.25C9.78726 6.25 11.5323 7.9875 11.5323 10.1212C11.5323 12.255 9.78726 13.99 7.64101 13.99Z" fill="currentColor"/>
</g>
<path fill-rule="evenodd" clip-rule="evenodd" d="M21.7346 20.26C20.6221 20.26 19.7171 21.155 19.7171 22.255C19.7171 23.3562 20.6221 24.25 21.7346 24.25C22.8459 24.25 23.7496 23.3562 23.7496 22.255C23.7496 21.155 22.8459 20.26 21.7346 20.26ZM21.7346 26.125C19.5884 26.125 17.8421 24.3887 17.8421 22.255C17.8421 20.1212 19.5884 18.385 21.7346 18.385C23.8796 18.385 25.6246 20.1212 25.6246 22.255C25.6246 24.3887 23.8796 26.125 21.7346 26.125Z" fill="currentColor"/>
</svg>
